@startuml
'https://plantuml.com/class-diagram

class Database{
    -String connectionString
    - {static} Database instance;
    - Database()
    + {static} Database getInstance()
    + void setConnectionString(String connectionString)
    + void execute(String query)
}
class Client{}
Database <-- Database: instance
Client ..> Database: uses
@enduml